<svg xmlns="http://www.w3.org/2000/svg" xmlns:xlink="http://www.w3.org/1999/xlink" viewBox="0 0 360 360" width="720" height="720"><title>The six types of chess pieces</title><desc>TEACHING_PLACEMENT POS-CHESS-PIECES-001 version 1</desc><style>.arrow{filter:drop-shadow(0 0 1.5px #fff);}</style><desc><pre>. . . . . . . .
. . . . . . . .
. . . . . . . .
. . . . . . . .
K Q R B N P . .
. . . . . . . .
. . . . . . . .
. . . . . . . .</pre></desc><defs><g id="white-pawn" class="white pawn"><path d="M22.5 9c-2.21 0-4 1.79-4 4 0 .89.29 1.71.78 2.38C17.33 16.5 16 18.59 16 21c0 2.03.94 3.84 2.41 5.03-3 1.06-7.41 5.55-7.41 13.47h23c0-7.92-4.41-12.41-7.41-13.47 1.47-1.19 2.41-3 2.41-5.03 0-2.41-1.33-4.5-3.28-5.62.49-.67.78-1.49.78-2.38 0-2.21-1.79-4-4-4z" fill="#fff" stroke="#000" stroke-width="1.5" stroke-linecap="round" /></g><g id="white-knight" class="white knight" fill="none" fill-rule="evenodd" stroke="#000" stroke-width="1.5" stroke-linecap="round" stroke-linejoin="round"><path d="M 22,10 C 32.5,11 38.5,18 38,39 L 15,39 C 15,30 25,32.5 23,18" style="fill:#ffffff; stroke:#000000;" /><path d="M 24,18 C 24.38,20.91 18.45,25.37 16,27 C 13,29 13.18,31.34 11,31 C 9.958,30.06 12.41,27.96 11,28 C 10,28 11.19,29.23 10,30 C 9,30 5.997,31 6,26 C 6,24 12,14 12,14 C 12,14 13.89,12.1 14,10.5 C 13.27,9.506 13.5,8.5 13.5,7.5 C 14.5,6.5 16.5,10 16.5,10 L 18.5,10 C 18.5,10 19.28,8.008 21,7 C 22,7 22,10 22,10" style="fill:#ffffff; stroke:#000000;" /><path d="M 9.5 25.5 A 0.5 0.5 0 1 1 8.5,25.5 A 0.5 0.5 0 1 1 9.5 25.5 z" style="fill:#000000; stroke:#000000;" /><path d="M 15 15.5 A 0.5 1.5 0 1 1 14,15.5 A 0.5 1.5 0 1 1 15 15.5 z" transform="matrix(0.866,0.5,-0.5,0.866,9.693,-5.173)" style="fill:#000000; stroke:#000000;" /></g><g id="white-bishop" class="white bishop" fill="none" fill-rule="evenodd" stroke="#000" stroke-width="1.5" stroke-linecap="round" stroke-linejoin="round"><g fill="#fff" stroke-linecap="butt"><path d="M9 36c3.39-.97 10.11.43 13.5-2 3.39 2.43 10.11 1.03 13.5 2 0 0 1.65.54 3 2-.68.97-1.65.99-3 .5-3.39-.97-10.11.46-13.5-1-3.39 1.46-10.11.03-13.5 1-1.354.49-2.323.47-3-.5 1.354-1.94 3-2 3-2zM15 32c2.5 2.5 12.5 2.5 15 0 .5-1.5 0-2 0-2 0-2.5-2.5-4-2.5-4 5.5-1.5 6-11.5-5-15.5-11 4-10.5 14-5 15.5 0 0-2.5 1.5-2.5 4 0 0-.5.5 0 2zM25 8a2.5 2.5 0 1 1-5 0 2.5 2.5 0 1 1 5 0z" /></g><path d="M17.5 26h10M15 30h15m-7.5-14.5v5M20 18h5" stroke-linejoin="miter" /></g><g id="white-rook" class="white rook" fill="#fff" fill-rule="evenodd" stroke="#000" stroke-width="1.5" stroke-linecap="round" stroke-linejoin="round"><path d="M9 39h27v-3H9v3zM12 36v-4h21v4H12zM11 14V9h4v2h5V9h5v2h5V9h4v5" stroke-linecap="butt" /><path d="M34 14l-3 3H14l-3-3" /><path d="M31 17v12.5H14V17" stroke-linecap="butt" stroke-linejoin="miter" /><path d="M31 29.5l1.5 2.5h-20l1.5-2.5" /><path d="M11 14h23" fill="none" stroke-linejoin="miter" /></g><g id="white-queen" class="white queen" fill="#fff" fill-rule="evenodd" stroke="#000" stroke-width="1.5" stroke-linecap="round" stroke-linejoin="round"><path d="M8 12a2 2 0 1 1-4 0 2 2 0 1 1 4 0zM24.5 7.5a2 2 0 1 1-4 0 2 2 0 1 1 4 0zM41 12a2 2 0 1 1-4 0 2 2 0 1 1 4 0zM16 8.5a2 2 0 1 1-4 0 2 2 0 1 1 4 0zM33 9a2 2 0 1 1-4 0 2 2 0 1 1 4 0z" /><path d="M9 26c8.5-1.5 21-1.5 27 0l2-12-7 11V11l-5.5 13.5-3-15-3 15-5.5-14V25L7 14l2 12zM9 26c0 2 1.5 2 2.5 4 1 1.5 1 1 .5 3.5-1.5 1-1.5 2.5-1.5 2.5-1.5 1.5.5 2.5.5 2.5 6.5 1 16.5 1 23 0 0 0 1.5-1 0-2.5 0 0 .5-1.5-1-2.5-.5-2.5-.5-2 .5-3.5 1-2 2.5-2 2.5-4-8.5-1.5-18.5-1.5-27 0z" stroke-linecap="butt" /><path d="M11.5 30c3.5-1 18.5-1 22 0M12 33.5c6-1 15-1 21 0" fill="none" /></g><g id="white-king" class="white king" fill="none" fill-rule="evenodd" stroke="#000" stroke-width="1.5" stroke-linecap="round" stroke-linejoin="round"><path d="M22.5 11.63V6M20 8h5" stroke-linejoin="miter" /><path d="M22.5 25s4.5-7.5 3-10.5c0 0-1-2.5-3-2.5s-3 2.5-3 2.5c-1.5 3 3 10.5 3 10.5" fill="#fff" stroke-linecap="butt" stroke-linejoin="miter" /><path d="M11.5 37c5.5 3.5 15.5 3.5 21 0v-7s9-4.5 6-10.5c-4-6.5-13.5-3.5-16 4V27v-3.5c-3.5-7.5-13-10.5-16-4-3 6 5 10 5 10V37z" fill="#fff" /><path d="M11.5 30c5.5-3 15.5-3 21 0m-21 3.5c5.5-3 15.5-3 21 0m-21 3.5c5.5-3 15.5-3 21 0" /></g></defs><rect x="0" y="315" width="45" height="45" class="square dark a1" stroke="none" fill="#557a5c" /><rect x="45" y="315" width="45" height="45" class="square light b1" stroke="none" fill="#f4f0df" /><rect x="90" y="315" width="45" height="45" class="square dark c1" stroke="none" fill="#557a5c" /><rect x="135" y="315" width="45" height="45" class="square light d1" stroke="none" fill="#f4f0df" /><rect x="180" y="315" width="45" height="45" class="square dark e1" stroke="none" fill="#557a5c" /><rect x="225" y="315" width="45" height="45" class="square light f1" stroke="none" fill="#f4f0df" /><rect x="270" y="315" width="45" height="45" class="square dark g1" stroke="none" fill="#557a5c" /><rect x="315" y="315" width="45" height="45" class="square light h1" stroke="none" fill="#f4f0df" /><rect x="0" y="270" width="45" height="45" class="square light a2" stroke="none" fill="#f4f0df" /><rect x="45" y="270" width="45" height="45" class="square dark b2" stroke="none" fill="#557a5c" /><rect x="90" y="270" width="45" height="45" class="square light c2" stroke="none" fill="#f4f0df" /><rect x="135" y="270" width="45" height="45" class="square dark d2" stroke="none" fill="#557a5c" /><rect x="180" y="270" width="45" height="45" class="square light e2" stroke="none" fill="#f4f0df" /><rect x="225" y="270" width="45" height="45" class="square dark f2" stroke="none" fill="#557a5c" /><rect x="270" y="270" width="45" height="45" class="square light g2" stroke="none" fill="#f4f0df" /><rect x="315" y="270" width="45" height="45" class="square dark h2" stroke="none" fill="#557a5c" /><rect x="0" y="225" width="45" height="45" class="square dark a3" stroke="none" fill="#557a5c" /><rect x="45" y="225" width="45" height="45" class="square light b3" stroke="none" fill="#f4f0df" /><rect x="90" y="225" width="45" height="45" class="square dark c3" stroke="none" fill="#557a5c" /><rect x="135" y="225" width="45" height="45" class="square light d3" stroke="none" fill="#f4f0df" /><rect x="180" y="225" width="45" height="45" class="square dark e3" stroke="none" fill="#557a5c" /><rect x="225" y="225" width="45" height="45" class="square light f3" stroke="none" fill="#f4f0df" /><rect x="270" y="225" width="45" height="45" class="square dark g3" stroke="none" fill="#557a5c" /><rect x="315" y="225" width="45" height="45" class="square light h3" stroke="none" fill="#f4f0df" /><rect x="0" y="180" width="45" height="45" class="square light a4" stroke="none" fill="#f4f0df" /><rect x="45" y="180" width="45" height="45" class="square dark b4" stroke="none" fill="#557a5c" /><rect x="90" y="180" width="45" height="45" class="square light c4" stroke="none" fill="#f4f0df" /><rect x="135" y="180" width="45" height="45" class="square dark d4" stroke="none" fill="#557a5c" /><rect x="180" y="180" width="45" height="45" class="square light e4" stroke="none" fill="#f4f0df" /><rect x="225" y="180" width="45" height="45" class="square dark f4" stroke="none" fill="#557a5c" /><rect x="270" y="180" width="45" height="45" class="square light g4" stroke="none" fill="#f4f0df" /><rect x="315" y="180" width="45" height="45" class="square dark h4" stroke="none" fill="#557a5c" /><rect x="0" y="135" width="45" height="45" class="square dark a5" stroke="none" fill="#557a5c" /><rect x="45" y="135" width="45" height="45" class="square light b5" stroke="none" fill="#f4f0df" /><rect x="90" y="135" width="45" height="45" class="square dark c5" stroke="none" fill="#557a5c" /><rect x="135" y="135" width="45" height="45" class="square light d5" stroke="none" fill="#f4f0df" /><rect x="180" y="135" width="45" height="45" class="square dark e5" stroke="none" fill="#557a5c" /><rect x="225" y="135" width="45" height="45" class="square light f5" stroke="none" fill="#f4f0df" /><rect x="270" y="135" width="45" height="45" class="square dark g5" stroke="none" fill="#557a5c" /><rect x="315" y="135" width="45" height="45" class="square light h5" stroke="none" fill="#f4f0df" /><rect x="0" y="90" width="45" height="45" class="square light a6" stroke="none" fill="#f4f0df" /><rect x="45" y="90" width="45" height="45" class="square dark b6" stroke="none" fill="#557a5c" /><rect x="90" y="90" width="45" height="45" class="square light c6" stroke="none" fill="#f4f0df" /><rect x="135" y="90" width="45" height="45" class="square dark d6" stroke="none" fill="#557a5c" /><rect x="180" y="90" width="45" height="45" class="square light e6" stroke="none" fill="#f4f0df" /><rect x="225" y="90" width="45" height="45" class="square dark f6" stroke="none" fill="#557a5c" /><rect x="270" y="90" width="45" height="45" class="square light g6" stroke="none" fill="#f4f0df" /><rect x="315" y="90" width="45" height="45" class="square dark h6" stroke="none" fill="#557a5c" /><rect x="0" y="45" width="45" height="45" class="square dark a7" stroke="none" fill="#557a5c" /><rect x="45" y="45" width="45" height="45" class="square light b7" stroke="none" fill="#f4f0df" /><rect x="90" y="45" width="45" height="45" class="square dark c7" stroke="none" fill="#557a5c" /><rect x="135" y="45" width="45" height="45" class="square light d7" stroke="none" fill="#f4f0df" /><rect x="180" y="45" width="45" height="45" class="square dark e7" stroke="none" fill="#557a5c" /><rect x="225" y="45" width="45" height="45" class="square light f7" stroke="none" fill="#f4f0df" /><rect x="270" y="45" width="45" height="45" class="square dark g7" stroke="none" fill="#557a5c" /><rect x="315" y="45" width="45" height="45" class="square light h7" stroke="none" fill="#f4f0df" /><rect x="0" y="0" width="45" height="45" class="square light a8" stroke="none" fill="#f4f0df" /><rect x="45" y="0" width="45" height="45" class="square dark b8" stroke="none" fill="#557a5c" /><rect x="90" y="0" width="45" height="45" class="square light c8" stroke="none" fill="#f4f0df" /><rect x="135" y="0" width="45" height="45" class="square dark d8" stroke="none" fill="#557a5c" /><rect x="180" y="0" width="45" height="45" class="square light e8" stroke="none" fill="#f4f0df" /><rect x="225" y="0" width="45" height="45" class="square dark f8" stroke="none" fill="#557a5c" /><rect x="270" y="0" width="45" height="45" class="square light g8" stroke="none" fill="#f4f0df" /><rect x="315" y="0" width="45" height="45" class="square dark h8" stroke="none" fill="#557a5c" /><use href="#white-king" xlink:href="#white-king" transform="translate(0, 180)" /><use href="#white-queen" xlink:href="#white-queen" transform="translate(45, 180)" /><use href="#white-rook" xlink:href="#white-rook" transform="translate(90, 180)" /><use href="#white-bishop" xlink:href="#white-bishop" transform="translate(135, 180)" /><use href="#white-knight" xlink:href="#white-knight" transform="translate(180, 180)" /><use href="#white-pawn" xlink:href="#white-pawn" transform="translate(225, 180)" /></svg>